#!OML:ASF I:\Actors\actors\Patient Classification 1\Patient 1\Session 1\Subject1.ASF
:FULLY-SPECIFIED
:DEGREES
232
root 0.308417 17.4883 9.60166 3.35218 9.9813 -10.0436
lowerback 1.69593 7.79754 11.2294
upperback -9.75702 11.5205 0.998357
thorax -9.56082 4.80776 -5.99567
lowerneck -14.9091 2.08058 5.7752
upperneck 29.138 -2.02994 12.0048
head 12.3327 1.44166 3.32164
rclavicle 4.4329e-014 9.54166e-015
rhumerus 25.6511 50.7387 -98.9516
rradius 44.7766
rwrist 20.9637
rhand -7.73469 -47.3044
rfingers 7.12502
rthumb 18.1641 -76.4762
lclavicle 4.4329e-014 9.54166e-015
lhumerus 39.8141 35.901 108.511
lradius 15.8447
lwrist 5.86093
lhand -54.0449 -17.4794
lfingers 7.12502
lthumb -26.4663 10.6925
rfemur -0.340789 15.2343 30.3909
rtibia 9.13493
rfoot -17.464 -25.1301
rtoes 6.2991
lfemur 3.27823 -33.2752 -7.5117
ltibia -0.353933
lfoot -8.33648 31.6298
ltoes -13.8722
233
root 0.314454 17.4893 9.60445 3.50093 9.38511 -9.94599
lowerback 1.78712 7.88161 11.3521
upperback -9.78673 11.6452 0.872765
thorax -9.57996 4.84906 -6.2102
lowerneck -14.9926 2.07771 5.47221
upperneck 29.1388 -2.19893 12.8044
head 12.38 1.44022 3.66512
rclavicle -8.78628e-014 -3.10104e-014
rhumerus 26.641 52.0173 -97.6729
rradius 45.4009
rwrist 17.2698
rhand -6.25636 -47.8831
rfingers 7.12502
rthumb 19.5859 -76.9165
lclavicle -8.78628e-014 -3.10104e-014
lhumerus 48.9014 43.4537 119.698
lradius 13.2485
lwrist -6.73901
lhand -54.856 -18.9438
lfingers 7.12502
lthumb -27.2424 9.10877
rfemur -0.563165 15.2561 30.1788
rtibia 9.29504
rfoot -17.3449 -24.6554
rtoes 5.77842
lfemur 3.53714 -33.3619 -7.81156
ltibia -0.446002
lfoot -8.6366 32.2831
ltoes -13.0644
234
root 0.319186 17.4917 9.60736 3.64726 8.77968 -9.86281
lowerback 1.90835 7.99632 11.416
upperback -9.83105 11.8143 0.754027
thorax -9.636 4.91397 -6.39557
lowerneck -15.0524 1.9948 5.16659
upperneck 29.0587 -2.4636 13.5789
head 12.3971 1.38702 3.98181
rclavicle 8.56762e-014 3.02153e-014
rhumerus 27.4741 53.0338 -96.4724
rradius 46.5139
rwrist 13.8853
rhand -5.24696 -48.4232
rfingers 7.12502
rthumb 20.5561 -77.3549
lclavicle 8.56762e-014 3.02153e-014
lhumerus 58.9126 48.5072 131.626
lradius 11.724
lwrist -16.9425
lhand -56.0826 -19.5295
lfingers 7.12502
lthumb -28.4151 8.33328
rfemur -0.759182 15.3732 29.9962
rtibia 9.40542
rfoot -17.2551 -24.2475
rtoes 5.49215
lfemur 3.76937 -33.4779 -8.0925
ltibia -0.496078
lfoot -8.82577 32.9699
ltoes -12.5592
235
root 0.32325 17.496 9.61233 3.76784 8.2093 -9.84899
lowerback 1.99026 8.07492 11.4324
upperback -9.84478 11.9329 0.749773
thorax -9.67546 4.96586 -6.42644
lowerneck -14.956 1.9978 5.13213
upperneck 28.8799 -2.50759 13.8775
head 12.3163 1.38787 4.08525
rclavicle -7.7526e-015 1.31198e-014
rhumerus 28.2693 54.1054 -95.1652
rradius 48.1604
rwrist 11.8537
rhand -4.06074 -48.7868
rfingers 7.12502
rthumb 21.6956 -77.5911
lclavicle -7.7526e-015 1.31198e-014
lhumerus 65.1579 50.418 138.576
lradius 11.1483
lwrist -21.422
lhand -57.2318 -19.3102
lfingers 7.12502
lthumb -29.5128 8.36423
rfemur -0.877492 15.4493 29.9035
rtibia 9.40562
rfoot -17.0651 -23.8392
rtoes 4.87774
lfemur 3.92222 -33.3505 -8.21828
ltibia -0.500639
lfoot -8.84216 33.389
ltoes -12.626
236
root 0.328 17.4999 9.61946 3.94282 7.73823 -9.80712
lowerback 1.88371 8.10618 11.334
upperback -9.80091 11.9525 0.832742
thorax -9.59304 4.99569 -6.2667
lowerneck -14.8121 2.09285 4.99965
upperneck 28.5598 -2.35869 14.1502
head 12.1526 1.44853 4.21089
rclavicle 7.02704e-014 -3.97569e-015
rhumerus 29.7103 55.5874 -92.9107
rradius 50.4036
rwrist 10.5958
rhand -2.72149 -49.0356
rfingers 7.12502
rthumb 22.9812 -77.6857
lclavicle 7.02704e-014 -3.97569e-015
lhumerus 67.0331 50.6908 140.045
lradius 11.0898
lwrist -21.9185
lhand -57.5513 -18.8977
lfingers 7.12502
lthumb -29.8177 8.72246
rfemur -0.983329 15.5877 29.7842
rtibia 9.30499
rfoot -16.9506 -23.5247
rtoes 4.58179
lfemur 3.92269 -33.1725 -8.29796
ltibia -0.44372
lfoot -8.93403 33.6792
ltoes -12.7758
237
root 0.332741 17.5011 9.62776 4.1737 7.3417 -9.7185
lowerback 1.63591 8.11077 11.16
upperback -9.75024 11.9086 0.908348
thorax -9.44126 5.00678 -6.04977
lowerneck -14.6857 2.24472 5.09055
upperneck 28.3049 -2.12106 14.1523
head 12.0087 1.54302 4.20847
rclavicle -9.01488e-014 -4.85035e-014
rhumerus 31.6474 57.1273 -90.0668
rradius 53.0417
rwrist 9.68994
rhand -1.46486 -49.3763
rfingers 7.12502
rthumb 24.1866 -77.8713
lclavicle -9.01488e-014 -4.85035e-014
lhumerus 66.7418 50.3927 138.684
lradius 11.1402
lwrist -21.374
lhand -57.1648 -19.0331
lfingers 7.12502
lthumb -29.4488 8.65257
rfemur -1.12745 15.8637 29.6169
rtibia 9.20486
rfoot -16.9459 -23.3456
rtoes 4.76756
lfemur 3.88266 -33.255 -8.439
ltibia -0.403168
lfoot -9.20635 34.1459
ltoes -12.28
238
root 0.336197 17.5008 9.63711 4.37772 6.9798 -9.69246
lowerback 1.47415 8.04076 11.045
upperback -9.75059 11.7888 0.98909
thorax -9.4034 4.96452 -5.87709
lowerneck -14.5954 2.44796 5.27837
upperneck 28.2524 -1.83812 14.0574
head 11.9507 1.66975 4.17243
rclavicle 4.00054e-014 4.13472e-014
rhumerus 33.7913 58.6471 -87.0444
rradius 56.0794
rwrist 8.86473
rhand -0.342634 -50.0874
rfingers 7.12502
rthumb 25.2621 -78.4349
lclavicle 4.00054e-014 4.13472e-014
lhumerus 67.4321 50.5124 138.275
lradius 11.1091
lwrist -22.6322
lhand -56.373 -19.8164
lfingers 7.12502
lthumb -28.6926 7.99976
rfemur -1.27231 16.1148 29.5244
rtibia 9.14447
rfoot -16.903 -23.1941
rtoes 4.88437
lfemur 3.90762 -33.4578 -8.53559
ltibia -0.425253
lfoot -9.55961 34.7039
ltoes -11.3717
239
root 0.339124 17.5006 9.64663 4.53253 6.67115 -9.74723
lowerback 1.46084 7.9244 11.0618
upperback -9.81588 11.6439 1.05059
thorax -9.50609 4.88453 -5.82328
lowerneck -14.5202 2.65753 5.33445
upperneck 28.3147 -1.59418 14.2037
head 11.9489 1.80387 4.256
rclavicle 1.86361e-014 1.0138e-014
rhumerus 36.0016 60.0016 -84.0387
rradius 59.3988
rwrist 7.86387
rhand 0.706014 -51.0365
rfingers 7.12502
rthumb 26.2664 -79.2384
lclavicle 1.86361e-014 1.0138e-014
lhumerus 69.1874 51.0036 139.053
lradius 11.0358
lwrist -25.4686
lhand -55.7389 -21.086
lfingers 7.12502
lthumb -28.0867 6.8311
rfemur -1.37664 16.321 29.5385
rtibia 9.08169
rfoot -16.805 -23.067
rtoes 4.83183
lfemur 3.96859 -33.6187 -8.54352
ltibia -0.471593
lfoot -9.82277 35.1857
ltoes -10.8049
240
root 0.343033 17.4992 9.65599 4.66062 6.37571 -9.82474
lowerback 1.52287 7.80108 11.1895
upperback -9.92775 11.5099 1.07003
thorax -9.67862 4.79145 -5.88702
lowerneck -14.2409 2.87244 5.48464
upperneck 28.3384 -1.34824 14.3926
head 11.8917 1.94682 4.33159
rclavicle -7.56376e-014 -2.44505e-014
rhumerus 38.3465 61.1725 -80.9461
rradius 62.8047
rwrist 6.53751
rhand 1.61515 -52.0402
rfingers 7.12502
rthumb 27.1365 -80.1094
lclavicle -7.56376e-014 -2.44505e-014
lhumerus 70.194 51.3768 138.766
lradius 10.9682
lwrist -27.5027
lhand -55.55 -22.4454
lfingers 7.12502
lthumb -27.9061 5.5012
rfemur -1.47612 16.5024 29.584
rtibia 9.06723
rfoot -16.6968 -22.922
rtoes 4.63188
lfemur 4.0915 -33.8044 -8.55838
ltibia -0.566016
lfoot -9.95055 35.6603
ltoes -10.6105
241
root 0.348351 17.4959 9.66557 4.78624 6.03901 -9.89922
lowerback 1.60484 7.61 11.3464
upperback -10.0267 11.2939 1.14733
thorax -9.87142 4.65645 -5.90462
lowerneck -13.8413 3.18219 5.7291
upperneck 28.3757 -0.921139 14.3856
head 11.8002 2.15246 4.33502
rclavicle 1.48592e-014 2.62396e-014
rhumerus 41.1064 62.3702 -77.5756
rradius 66.1383
rwrist 5.26344
rhand 2.74275 -53.0456
rfingers 7.12502
rthumb 28.2147 -80.9417
lclavicle 1.48592e-014 2.62396e-014
lhumerus 70.6197 51.807 137.492
lradius 10.9714
lwrist -28.2524
lhand -55.4582 -23.196
lfingers 7.12502
lthumb -27.8183 4.7649
rfemur -1.62152 16.6755 29.616
rtibia 9.15297
rfoot -16.6092 -22.7163
rtoes 4.37137
lfemur 4.28726 -34.0466 -8.61856
ltibia -0.722198
lfoot -10.1628 36.2295
ltoes -10.1676
242
root 0.354108 17.4932 9.67469 4.9343 5.64195 -9.95982
lowerback 1.71293 7.35959 11.5113
upperback -10.1215 11.0064 1.26278
thorax -10.0958 4.4845 -5.88663
lowerneck -13.5556 3.57356 5.94939
upperneck 28.5671 -0.370984 14.2635
head 11.7847 2.40823 4.32741
rclavicle -9.651e-014 -4.83047e-014
rhumerus 44.3224 63.5436 -74.0796
rradius 69.1552
rwrist 4.3957
rhand 4.51459 -53.7175
rfingers 7.12502
rthumb 29.9069 -81.3216
lclavicle -9.651e-014 -4.83047e-014
lhumerus 70.5769 52.3333 135.419
lradius 11.0369
lwrist -28.1217
lhand -55.3607 -23.4001
lfingers 7.12502
lthumb -27.7251 4.57577
rfemur -1.82484 16.8928 29.6222
rtibia 9.3067
rfoot -16.5735 -22.4476
rtoes 4.46193
lfemur 4.50165 -34.2725 -8.70485
ltibia -0.90341
lfoot -10.5241 36.8637
ltoes -9.38986
243
root 0.359795 17.4928 9.68256 5.08854 5.14085 -9.98802
lowerback 1.88212 7.09817 11.6993
upperback -10.2234 10.7141 1.35194
thorax -10.3588 4.3028 -5.91585
lowerneck -13.3276 4.00647 6.19607
upperneck 28.844 0.230637 14.0886
head 11.815 2.68994 4.30926
rclavicle 3.67255e-014 3.57812e-014
rhumerus 48.4478 64.7293 -69.7663
rradius 71.9806
rwrist 3.38126
rhand 6.23284 -54.1373
rfingers 7.12502
rthumb 31.5452 -81.4334
lclavicle 3.67255e-014 3.57812e-014
lhumerus 70.2071 52.9474 132.773
lradius 11.1038
lwrist -27.7502
lhand -55.2338 -23.5107
lfingers 7.12502
lthumb -27.6038 4.48462
rfemur -2.05953 17.1679 29.5862
rtibia 9.49432
rfoot -16.5426 -22.1372
rtoes 4.66029
lfemur 4.78026 -34.5083 -8.87158
ltibia -1.11235
lfoot -10.8874 37.591
ltoes -8.57618
244
root 0.366511 17.4942 9.68974 5.2523 4.54048 -9.95039
lowerback 2.06827 6.85411 11.879
upperback -10.3116 10.4428 1.40807
thorax -10.609 4.13122 -5.97517
lowerneck -13.007 4.45208 6.46207
upperneck 29.0129 0.871844 13.915
head 11.7847 2.9826 4.28152
rclavicle -1.58531e-014 -1.46107e-014
rhumerus 53.7429 65.8262 -64.1388
rradius 74.8129
rwrist 1.88004
rhand 7.36396 -54.7369
rfingers 7.12502
rthumb 32.6221 -81.8161
lclavicle -1.58531e-014 -1.46107e-014
lhumerus 70.2167 53.7326 130.532
lradius 11.1418
lwrist -27.9963
lhand -55.1224 -23.7883
lfingers 7.12502
lthumb -27.4972 4.22404
rfemur -2.31377 17.4527 29.4633
rtibia 9.68472
rfoot -16.4155 -21.836
rtoes 4.19163
lfemur 5.13731 -34.8165 -9.17519
ltibia -1.35795
lfoot -11.2516 38.4429
ltoes -7.75196
